<svg xmlns="http://www.w3.org/2000/svg" xmlns:xlink="http://www.w3.org/1999/xlink" width="1952" height="497" viewBox="0 0 1952 497">
  <defs>
    <clipPath id="clip-logo">
      <rect width="1952" height="497"/>
    </clipPath>
  </defs>
  <g id="logo" clip-path="url(#clip-logo)">
    <g id="Component_6_1" data-name="Component 6 – 1" transform="translate(593.094 16.347)">
      <path id="Subtraction_3" data-name="Subtraction 3" d="M161.867-56.864H131.5l0-.008a48.469,48.469,0,0,1-3.263-7.618c-1.138-3.768-2.074-11.963-2.86-25.054-.8-13.406-1.931-25.932-2.511-27.923-.066-.227-.145-.584-.245-1.035-.782-3.526-2.858-12.894-11.132-18.7-5.58-3.916-13.947-6.015-24.869-6.237-.411-.008-.708-.014-.866-.026-.458-.034-5.9-.051-16.188-.051-17.188,0-42.51.049-43.579.051h-.009l.016,10.624.12,75.7H0v-199.81H73.533c13.1,0,23.708.291,32.93,1.714a70.786,70.786,0,0,1,22.681,7.2,48.1,48.1,0,0,1,14.9,12.185,46.65,46.65,0,0,1,8.172,15.481,57.461,57.461,0,0,1,2.491,17.091,55.055,55.055,0,0,1-12.284,35.155,53.594,53.594,0,0,1-11.118,10.32,35.979,35.979,0,0,1-10.664,5.185h.015a26.287,26.287,0,0,1,4.085.764,33.739,33.739,0,0,1,9.215,3.961,30.282,30.282,0,0,1,9.682,9.66,39.309,39.309,0,0,1,5.5,17.86c2.458,30.045,1.92,32.426,1.914,32.447.02.168,2.037,16.961,5.771,23.429,3.666,6.35,4.982,7.575,5.036,7.624ZM26.05-234.23v69.574H86.294a61.093,61.093,0,0,0,20.853-4.891C116.66-173.8,128-182.708,128-201.009c0-31.49-32.938-33.085-39.541-33.085-.991,0-1.566.032-1.59.033l-60.819-.169Z" transform="translate(221.884 510.909)" fill="#363435"/>
      <path id="Subtraction_6" data-name="Subtraction 6" d="M186.216-57.825H156.41l-21.961-61.01H50.917L28.025-57.827H0L79.077-257h29.1L186.215-57.827ZM92.879-232.173h0L58.76-140.014h67.846L92.879-232.173Z" transform="translate(933.602 261.581)" fill="#363435"/>
      <path id="Path_11" data-name="Path 11" d="M1751.486,477.1h25.943V300.462H1844.1V277.836H1684.214v22.625h67.272Z" transform="translate(-593.094 -273.347)" fill="#363435"/>
      <path id="Path_6" data-name="Path 6" d="M602.178,278h25.99v83.307H733.984V278h26.222V477.1H733.984V383.816H628.168V477.1H601.714Z" transform="translate(-593.094 -273.347)" fill="#363435"/>
      <path id="Subtraction_4" data-name="Subtraction 4" d="M186.216-57.825H156.41l-21.961-61.01H50.917L28.025-57.827H0L79.077-257h29.1L186.215-57.827ZM92.879-232.173h0L58.76-140.014h67.846L92.879-232.173Z" transform="translate(186.602 261.581)" fill="#363435"/>
      <path id="Subtraction_5" data-name="Subtraction 5" d="M186.216-57.825H156.41l-21.961-61.01H50.917L28.025-57.827H0L79.077-257h29.1L186.215-57.827ZM92.879-232.173h0L58.76-140.014h67.846L92.879-232.173Z" transform="translate(550.602 261.581)" fill="#363435"/>
      <path id="Path_9" data-name="Path 9" d="M1101.494,336.27l25.236-.212s1.174-19.065-10.407-36.175c-9.174-13.556-26.952-25.688-59.867-26.5-20.672-.51-36.352,4.571-40.643,6.591s-20.717,8.305-29.057,26.22-8.748,45.854,12.067,61.54c19.324,11.157,36.435,14.494,61.54,19.608,43.413,8.843,49.2,23.512,48,41.612-1.2,17.948-18.278,29.829-44.98,30.757-10.638.37-25.975-1.47-34.934-5.218-29.988-12.541-28.148-43.018-28.148-43.018H974.62s-6.869,72.7,88.76,69.987c34.4-.977,54.534-14.684,64.3-30.718,4.709-7.729,7.18-22.311,7.18-27.558,0-4.4,1.076-22.019-15.516-38.309-3.6-3.535-12.581-8.527-24.167-13.319a145.987,145.987,0,0,0-22.793-7.277c-3.19-.851-35.32-6.459-47.234-11.4-17.164-7.964-18.4-19.979-18.4-23.892,0-4.11.034-21.04,19.361-29.11,18.142-7.575,39.875-4.283,50.8,0C1100.324,309.057,1101.494,336.27,1101.494,336.27Z" transform="translate(-593.094 -273.347)" fill="#363435"/>
      <path id="Path_10" data-name="Path 10" d="M1347.761,477.1V277.852h28.752l105.023,161.613V277.852h25.181l.432,199.249h-30.712L1373.055,317.912V477.1Z" transform="translate(-593.094 -273.347)" fill="#363435"/>
      <path id="Path_12" data-name="Path 12" d="M773.559,589.164s-2.321-29.532-23.7-45.993-47.158-19.85-61.822-19.85c-32.084,0-57.758,14.025-72.981,34.367-18.2,24.326-22.412,57.072-21.924,74.66.493,17.772,5.4,46.121,21.924,66.364,21.951,26.886,50.558,34.127,72.981,34.127,41.99,0,63.582-29.627,63.582-29.627l6.5,24.2h18.5V621.937l-88.575-.31V643.25l64.572-.141s-.292,30.8-16.587,48.277-37.714,19.177-47.985,19.177-39.5-8.3-50.352-23.1S619.8,656.491,619.8,632.348c0-16.274.593-39.7,14.813-58.365s27.671-27.257,53.427-27.257c51.1,0,58.609,42.438,58.609,42.438Z" transform="translate(-593.094 -273.752)" fill="#363435"/>
      <path id="Subtraction_2" data-name="Subtraction 2" d="M99.862-48.48c-2.892,0-4.591-.177-4.608-.179h-.173a121.525,121.525,0,0,1-26.494-3.462,99.874,99.874,0,0,1-21.61-7.827A67.841,67.841,0,0,1,27-74.949a88.807,88.807,0,0,1-14.282-22.2A129.283,129.283,0,0,1,4.7-120.573,162.316,162.316,0,0,1,.208-153.312c-.014-.541-.036-1.138-.062-1.83v-.006c-.415-11.335-1.517-41.446,22.812-71.977A70.67,70.67,0,0,1,41.909-243.6,88.832,88.832,0,0,1,62.6-252.556a110.121,110.121,0,0,1,18.347-3.711A104.386,104.386,0,0,1,92.872-257c1.514,0,2.374.046,2.383.046s.634-.029,1.738-.029a109.09,109.09,0,0,1,28.365,4.067,94.953,94.953,0,0,1,20.487,8.337,77.923,77.923,0,0,1,19.684,15.431,86.688,86.688,0,0,1,15.388,24.038,112.321,112.321,0,0,1,7.236,23.8A127.317,127.317,0,0,1,190.27-163.1c.187,4.488.033,7.232.032,7.26s.091,3.223-.221,8.374a155.366,155.366,0,0,1-2.686,20.7,126.966,126.966,0,0,1-8.184,26.384A86.853,86.853,0,0,1,162.5-74.949C139.4-51.06,111-48.48,99.862-48.48ZM95.737-234.171c-42.142,0-69.372,31.846-69.372,81.132C26.365-103.966,54.243-71,95.737-71c42.819,0,69.419-31.437,69.419-82.043C165.155-203.083,138.556-234.171,95.737-234.171Z" transform="translate(402.669 506.871)" fill="#363435"/>
      <path id="Path_18" data-name="Path 18" d="M1218.422,528.515v133s.311,34.675,20.534,52.078c9.181,7.9,16.45,10.965,26.234,13.807s17.86,4.421,34.124,3.728c46.444-1.981,68.7-13.767,76.613-53.279.625-3.122,1.583-12.056,1.583-12.056V528.515h-26.083s.914,127.254,0,137.282-2.562,22.791-15.59,33.763-36.522,10.125-36.522,10.125-20.612,1.224-36.945-8.887-17.569-36.2-17.889-39.279,0-133,0-133Z" transform="translate(-593.094 -273.347)" fill="#363435"/>
      <path id="Subtraction_1" data-name="Subtraction 1" d="M25.667-58.66H0V-257H89.058a103.006,103.006,0,0,1,16.164,2.127,81.61,81.61,0,0,1,14.271,4.313,45.441,45.441,0,0,1,13.122,7.95,41.228,41.228,0,0,1,8.869,11.9,66.21,66.21,0,0,1,4.913,13,79.787,79.787,0,0,1,2.552,14.766,79.509,79.509,0,0,1-1.789,16.373,70.547,70.547,0,0,1-4.818,14.844,49,49,0,0,1-9.727,14.285,54.546,54.546,0,0,1-13.981,9.971,73.365,73.365,0,0,1-14.176,5.352,76.469,76.469,0,0,1-15.4,2.567H25.667Zm.448-177.813v72.4H85.647a65.092,65.092,0,0,0,10.517-2.038c5.314-1.484,12.63-4.308,17.3-9.33s6.7-12.238,7.582-17.407a55.291,55.291,0,0,0,.795-10.115,42.161,42.161,0,0,0-.795-8.825c-.879-4.5-2.907-10.781-7.582-15.108s-11.99-6.7-17.3-7.927a73.291,73.291,0,0,0-10.517-1.645Z" transform="translate(829.891 512.168)" fill="#363435"/>
      <path id="Path_21" data-name="Path 21" d="M779.7,477.1l79.571-199.794h28.886L966.34,477.1" transform="translate(-593.094 -273.347)" fill="none"/>
    </g>
    <path id="Path_24" data-name="Path 24" d="M493,418.535s-33.094-34.412-33.473-35.176c0,0-11.315-10.374-26.228-24.458a142.113,142.113,0,0,1-24.15-30.93s-5.629,13.036-20.739,28.146c-28.218,25.633-66.735,66.52-72.29,76.141-8.706,15.08-11.258,33.478-11.258,33.478s-149.32,3.85-149.32,127.1S256.974,753.41,256.974,753.41l-257.589.852V257.778H493Z" transform="translate(0 -257)" fill="#014681"/>
    <path id="Path_25" data-name="Path 25" d="M409.74,376.854s-45.773,38.723-60.409,68.38-10.014,56.409-10.014,56.409S190.1,482.919,190.1,609.686c0,65.942,37.254,101.162,77.518,115.047S345.14,719.2,345.14,719.2s46.234-19.369,45.047-73.921c-.436-20.054-8.311-33.047-16.887-42.366a69.9,69.9,0,0,0-31.1-19.049s-16.136-5.889-32.2-3.36c-12.516,1.97-24.821,11.051-30.243,20.442-5.045,8.738-10.239,30.165-6.721,41.724,4.75,15.608,22.056,20.978,22.056,20.978s-5.332-54.829,35.069-52.736c13.483.7,20.164,5.825,24.771,12.447,9.266,13.311,6.628,25.113,6.628,33.968,0,15.579-21.124,30.061-31.4,32.528s-47.087,13.03-80.991-20.874c-13.886-15.8-20.316-39.549-18.961-59.29,2.206-32.153,19.164-66.906,61.028-73.459s77.626,13.833,77.626,13.833-2.285-43.28,8-76.325a146.025,146.025,0,0,1,31.7-54.514s25.064,28.131,34.45,57.948,7.054,72.891,7.054,72.891a109.47,109.47,0,0,1,20.389-9.324A119.066,119.066,0,0,1,493,536.227V499.51l-12.155,2.133s3.1-33.406-10.4-58.72S409.74,376.854,409.74,376.854Z" transform="translate(0 -257)" fill="#014681"/>
    <path id="Path_26" data-name="Path 26" d="M345.728,753.991s18.633-7.595,34.25-21.182,29.785-33.167,29.785-33.167,14.159,20.6,29.4,34.185a116.82,116.82,0,0,0,33.01,20.164Z" transform="translate(0 -256.991)" fill="#014681"/>
    <path id="Path_27" data-name="Path 27" d="M493,579.1v31.363s-36.325-2.149-36.325,37.121S493,690.535,493,690.535v36.7s-66.127-20.511-66.127-79.651S493,579.1,493,579.1Z" transform="translate(0 -257)" fill="#014681"/>
  </g>
</svg>
